<svg xmlns="http://www.w3.org/2000/svg" xmlns:xlink="http://www.w3.org/1999/xlink" width="123" zoomAndPan="magnify" viewBox="0 0 92.25 36.000001" height="48" preserveAspectRatio="xMidYMid meet" version="1.0"><defs><g/><clipPath id="0df9e8cfd5"><path d="M 9 3.503906 L 23 3.503906 L 23 8 L 9 8 Z M 9 3.503906 " clip-rule="nonzero"/></clipPath><clipPath id="a4fbc5819b"><path d="M 8 6 L 28 6 L 28 31.234375 L 8 31.234375 Z M 8 6 " clip-rule="nonzero"/></clipPath></defs><g fill="#373435" fill-opacity="1"><g transform="translate(45.676857, 22.717862)"><g><path d="M 1.171875 -0.425781 C 1.171875 -0.535156 1.144531 -0.628906 1.09375 -0.699219 C 1.039062 -0.773438 0.964844 -0.820312 0.878906 -0.847656 C 0.929688 -0.871094 0.976562 -0.910156 1.007812 -0.972656 C 1.023438 -1 1.035156 -1.023438 1.046875 -1.054688 C 1.054688 -1.085938 1.058594 -1.125 1.058594 -1.175781 C 1.058594 -1.226562 1.046875 -1.277344 1.023438 -1.328125 C 0.957031 -1.464844 0.808594 -1.535156 0.585938 -1.535156 L 0.167969 -1.535156 L 0.167969 0 L 0.640625 0 C 0.796875 0 0.917969 -0.0351562 1.015625 -0.105469 C 1.0625 -0.140625 1.101562 -0.191406 1.128906 -0.25 C 1.15625 -0.304688 1.171875 -0.363281 1.171875 -0.425781 Z M 0.902344 -1.152344 C 0.902344 -1.066406 0.875 -1.007812 0.828125 -0.964844 C 0.777344 -0.925781 0.710938 -0.90625 0.628906 -0.90625 L 0.328125 -0.90625 L 0.328125 -1.382812 L 0.585938 -1.382812 C 0.796875 -1.382812 0.902344 -1.304688 0.902344 -1.152344 Z M 1.015625 -0.457031 C 1.015625 -0.367188 0.984375 -0.292969 0.917969 -0.234375 C 0.859375 -0.179688 0.777344 -0.152344 0.683594 -0.152344 L 0.328125 -0.152344 L 0.328125 -0.746094 L 0.710938 -0.746094 C 0.789062 -0.746094 0.859375 -0.71875 0.917969 -0.667969 C 0.945312 -0.640625 0.96875 -0.613281 0.988281 -0.578125 C 1.003906 -0.542969 1.015625 -0.503906 1.015625 -0.457031 Z M 1.015625 -0.457031 "/></g></g></g><g fill="#373435" fill-opacity="1"><g transform="translate(47.648584, 22.717862)"><g><path d="M 1.082031 0 L 1.082031 -0.148438 L 0.328125 -0.148438 L 0.328125 -0.695312 L 1.058594 -0.695312 L 1.058594 -0.84375 L 0.328125 -0.84375 L 0.328125 -1.390625 L 1.082031 -1.390625 L 1.082031 -1.535156 L 0.167969 -1.535156 L 0.167969 0 Z M 1.082031 0 "/></g></g></g><g fill="#373435" fill-opacity="1"><g transform="translate(49.654188, 22.717862)"><g><path d="M 0.417969 -0.566406 L 0.699219 -1.273438 L 0.976562 -0.566406 Z M 1.371094 0 L 0.699219 -1.640625 L 0.0234375 0 L 0.195312 0 L 0.359375 -0.417969 L 1.035156 -0.417969 L 1.199219 0 Z M 1.371094 0 "/></g></g></g><g fill="#373435" fill-opacity="1"><g transform="translate(51.802084, 22.717862)"><g><path d="M 1.28125 -0.507812 L 1.28125 -1.535156 L 1.121094 -1.535156 L 1.121094 -0.484375 C 1.121094 -0.421875 1.109375 -0.371094 1.089844 -0.328125 C 1.023438 -0.199219 0.898438 -0.136719 0.710938 -0.136719 C 0.585938 -0.136719 0.488281 -0.164062 0.417969 -0.21875 C 0.335938 -0.28125 0.292969 -0.367188 0.292969 -0.484375 L 0.292969 -1.535156 L 0.136719 -1.535156 L 0.136719 -0.507812 C 0.136719 -0.339844 0.191406 -0.210938 0.296875 -0.113281 C 0.398438 -0.0234375 0.539062 0.0195312 0.710938 0.0195312 C 0.878906 0.0195312 1.015625 -0.0234375 1.117188 -0.113281 C 1.226562 -0.210938 1.28125 -0.339844 1.28125 -0.507812 Z M 1.28125 -0.507812 "/></g></g></g><g fill="#373435" fill-opacity="1"><g transform="translate(53.972564, 22.717862)"><g><path d="M 0.046875 -1.394531 L 0.417969 -1.394531 L 0.417969 -0.00390625 L 0.574219 -0.00390625 L 0.574219 -1.394531 L 0.949219 -1.394531 L 0.949219 -1.539062 L 0.046875 -1.539062 Z M 0.046875 -1.394531 "/></g></g></g><g fill="#373435" fill-opacity="1"><g transform="translate(55.720694, 22.717862)"><g><path d="M 0.761719 -0.722656 L 1.34375 -1.535156 L 1.144531 -1.535156 L 0.683594 -0.878906 L 0.226562 -1.535156 L 0.0234375 -1.535156 L 0.605469 -0.71875 L 0.605469 0 L 0.761719 0 Z M 0.761719 -0.722656 "/></g></g></g><g fill="#373435" fill-opacity="1"><g transform="translate(57.841487, 22.717862)"><g/></g></g><g fill="#373435" fill-opacity="1"><g transform="translate(59.205659, 22.717862)"><g><path d="M 0.59375 -0.722656 C 0.792969 -0.675781 0.929688 -0.625 1 -0.566406 C 1.050781 -0.523438 1.074219 -0.472656 1.074219 -0.410156 C 1.074219 -0.34375 1.0625 -0.292969 1.035156 -0.257812 C 0.964844 -0.164062 0.84375 -0.113281 0.671875 -0.113281 C 0.433594 -0.113281 0.296875 -0.195312 0.269531 -0.359375 L 0.0820312 -0.359375 C 0.136719 -0.0976562 0.335938 0.03125 0.671875 0.03125 C 0.824219 0.03125 0.949219 -0.00390625 1.050781 -0.0703125 C 1.175781 -0.148438 1.238281 -0.265625 1.238281 -0.421875 C 1.238281 -0.546875 1.1875 -0.644531 1.089844 -0.710938 C 1.019531 -0.761719 0.90625 -0.804688 0.75 -0.847656 C 0.589844 -0.886719 0.488281 -0.921875 0.441406 -0.945312 C 0.339844 -1 0.285156 -1.070312 0.289062 -1.164062 C 0.289062 -1.214844 0.296875 -1.257812 0.320312 -1.289062 C 0.378906 -1.378906 0.484375 -1.421875 0.632812 -1.421875 C 0.84375 -1.421875 0.960938 -1.355469 0.992188 -1.222656 L 1.164062 -1.222656 C 1.109375 -1.445312 0.929688 -1.558594 0.632812 -1.558594 C 0.496094 -1.558594 0.378906 -1.523438 0.277344 -1.449219 C 0.175781 -1.378906 0.125 -1.273438 0.125 -1.128906 C 0.125 -0.929688 0.28125 -0.796875 0.59375 -0.722656 Z M 0.59375 -0.722656 "/></g></g></g><g fill="#373435" fill-opacity="1"><g transform="translate(61.256434, 22.717862)"><g><path d="M 0.046875 -1.394531 L 0.417969 -1.394531 L 0.417969 -0.00390625 L 0.574219 -0.00390625 L 0.574219 -1.394531 L 0.949219 -1.394531 L 0.949219 -1.539062 L 0.046875 -1.539062 Z M 0.046875 -1.394531 "/></g></g></g><g fill="#373435" fill-opacity="1"><g transform="translate(63.004563, 22.717862)"><g><path d="M 1.28125 -0.507812 L 1.28125 -1.535156 L 1.121094 -1.535156 L 1.121094 -0.484375 C 1.121094 -0.421875 1.109375 -0.371094 1.089844 -0.328125 C 1.023438 -0.199219 0.898438 -0.136719 0.710938 -0.136719 C 0.585938 -0.136719 0.488281 -0.164062 0.417969 -0.21875 C 0.335938 -0.28125 0.292969 -0.367188 0.292969 -0.484375 L 0.292969 -1.535156 L 0.136719 -1.535156 L 0.136719 -0.507812 C 0.136719 -0.339844 0.191406 -0.210938 0.296875 -0.113281 C 0.398438 -0.0234375 0.539062 0.0195312 0.710938 0.0195312 C 0.878906 0.0195312 1.015625 -0.0234375 1.117188 -0.113281 C 1.226562 -0.210938 1.28125 -0.339844 1.28125 -0.507812 Z M 1.28125 -0.507812 "/></g></g></g><g fill="#373435" fill-opacity="1"><g transform="translate(65.175043, 22.717862)"><g><path d="M 1.363281 -0.769531 C 1.363281 -0.878906 1.339844 -0.980469 1.296875 -1.074219 C 1.257812 -1.171875 1.203125 -1.25 1.132812 -1.320312 C 1.058594 -1.386719 0.976562 -1.4375 0.878906 -1.476562 C 0.785156 -1.515625 0.679688 -1.535156 0.570312 -1.535156 L 0.167969 -1.535156 L 0.167969 0 L 0.570312 0 C 0.679688 0 0.785156 -0.0195312 0.878906 -0.0546875 C 0.976562 -0.09375 1.058594 -0.148438 1.132812 -0.21875 C 1.203125 -0.285156 1.257812 -0.363281 1.296875 -0.457031 C 1.339844 -0.554688 1.363281 -0.65625 1.363281 -0.769531 Z M 1.207031 -0.769531 C 1.207031 -0.589844 1.144531 -0.445312 1.023438 -0.328125 C 0.902344 -0.214844 0.753906 -0.15625 0.574219 -0.15625 L 0.328125 -0.15625 L 0.328125 -1.378906 L 0.574219 -1.378906 C 0.753906 -1.378906 0.902344 -1.320312 1.023438 -1.207031 C 1.144531 -1.089844 1.207031 -0.941406 1.207031 -0.769531 Z M 1.207031 -0.769531 "/></g></g></g><g fill="#373435" fill-opacity="1"><g transform="translate(67.392954, 22.717862)"><g><path d="M 0.328125 0 L 0.328125 -1.535156 L 0.167969 -1.535156 L 0.167969 0 Z M 0.328125 0 "/></g></g></g><g fill="#373435" fill-opacity="1"><g transform="translate(68.644197, 22.717862)"><g><path d="M 1.523438 -0.773438 C 1.523438 -0.597656 1.460938 -0.445312 1.335938 -0.324219 C 1.210938 -0.199219 1.0625 -0.140625 0.890625 -0.140625 C 0.714844 -0.140625 0.566406 -0.199219 0.445312 -0.324219 C 0.320312 -0.445312 0.257812 -0.597656 0.257812 -0.773438 C 0.257812 -0.945312 0.320312 -1.09375 0.445312 -1.21875 C 0.566406 -1.339844 0.714844 -1.402344 0.890625 -1.402344 C 1.0625 -1.402344 1.210938 -1.339844 1.335938 -1.21875 C 1.460938 -1.09375 1.523438 -0.945312 1.523438 -0.773438 Z M 1.679688 -0.773438 C 1.679688 -0.878906 1.65625 -0.984375 1.617188 -1.078125 C 1.578125 -1.175781 1.519531 -1.257812 1.449219 -1.332031 C 1.375 -1.398438 1.292969 -1.457031 1.195312 -1.496094 C 1.101562 -1.539062 1 -1.5625 0.890625 -1.5625 C 0.78125 -1.5625 0.675781 -1.539062 0.582031 -1.496094 C 0.488281 -1.457031 0.402344 -1.398438 0.332031 -1.332031 C 0.257812 -1.257812 0.203125 -1.175781 0.164062 -1.078125 C 0.121094 -0.984375 0.101562 -0.878906 0.101562 -0.773438 C 0.101562 -0.664062 0.121094 -0.558594 0.164062 -0.464844 C 0.203125 -0.367188 0.257812 -0.285156 0.332031 -0.210938 C 0.402344 -0.140625 0.488281 -0.0820312 0.582031 -0.0429688 C 0.675781 -0.00390625 0.78125 0.0195312 0.890625 0.0195312 C 1 0.0195312 1.101562 -0.00390625 1.195312 -0.0429688 C 1.292969 -0.0820312 1.375 -0.140625 1.449219 -0.210938 C 1.519531 -0.285156 1.578125 -0.367188 1.617188 -0.464844 C 1.65625 -0.558594 1.679688 -0.664062 1.679688 -0.773438 Z M 1.679688 -0.773438 "/></g></g></g><g fill="#bf1f1f" fill-opacity="1"><g transform="translate(31.2823, 18.781242)"><g><path d="M 0.222656 -1.289062 C 0.222656 -0.523438 0.707031 0.148438 1.5625 0.148438 C 3.027344 0.148438 3.886719 -1.148438 3.886719 -2.9375 C 3.886719 -3.292969 3.875 -3.585938 3.84375 -3.820312 L 4.757812 -1.414062 C 5.035156 -0.671875 5.074219 -0.0742188 4.035156 -0.0742188 L 4.035156 0 L 6.449219 0 L 6.449219 -0.0742188 C 6 -0.0742188 5.765625 -0.480469 5.441406 -1.289062 L 3.085938 -7.511719 L 3.011719 -7.511719 C 2.546875 -6.289062 2.273438 -5.558594 1.824219 -4.375 C 1.753906 -4.183594 1.789062 -3.984375 1.996094 -3.984375 C 2.414062 -3.984375 2.636719 -4.757812 2.988281 -4.757812 C 3.085938 -4.757812 3.167969 -4.699219 3.167969 -4.558594 C 3.167969 -3.792969 0.222656 -3.101562 0.222656 -1.289062 Z M 0.847656 -1.429688 C 0.847656 -3.246094 3.246094 -3.554688 3.246094 -4.542969 C 3.246094 -4.734375 3.144531 -4.832031 3.003906 -4.832031 C 2.613281 -4.832031 2.339844 -4.058594 2.003906 -4.058594 C 1.886719 -4.058594 1.824219 -4.144531 1.921875 -4.402344 L 2.769531 -6.65625 L 3.660156 -4.308594 C 3.792969 -3.875 3.8125 -3.46875 3.8125 -2.921875 C 3.8125 -1.714844 3.234375 -0.207031 2.003906 -0.207031 C 1.28125 -0.207031 0.847656 -0.738281 0.847656 -1.429688 Z M 0.847656 -1.429688 "/></g></g></g><g fill="#bf1f1f" fill-opacity="1"><g transform="translate(37.73257, 18.781242)"><g/></g></g><g fill="#bf1f1f" fill-opacity="1"><g transform="translate(40.309733, 18.781242)"><g><path d="M 0.222656 -7.363281 L 0.222656 -7.289062 C 0.855469 -7.289062 0.898438 -6.765625 0.898438 -5.316406 L 0.898438 -2.046875 C 0.898438 -0.597656 0.855469 -0.0742188 0.222656 -0.0742188 L 0.222656 0 L 1.105469 0 C 1.914062 0 2.4375 0.148438 3.292969 0.148438 C 4.859375 0.148438 5.734375 -0.707031 5.734375 -1.980469 C 5.734375 -3.101562 4.816406 -3.820312 3.6875 -3.820312 C 2.980469 -3.820312 2.464844 -3.371094 2.15625 -3.371094 C 2.070312 -3.371094 1.945312 -3.394531 1.945312 -3.5625 C 1.945312 -4.382812 5.273438 -4.234375 5.273438 -6.15625 C 5.273438 -7.1875 4.324219 -7.511719 3.285156 -7.511719 C 2.636719 -7.511719 1.722656 -7.363281 1.074219 -7.363281 Z M 1.523438 -7.203125 C 1.953125 -7.332031 2.378906 -7.40625 2.855469 -7.40625 C 3.753906 -7.40625 4.640625 -7.054688 4.640625 -6.140625 C 4.640625 -4.652344 1.871094 -4.515625 1.871094 -3.550781 C 1.871094 -3.371094 1.996094 -3.296875 2.128906 -3.296875 C 2.5625 -3.296875 3.0625 -3.742188 3.683594 -3.742188 C 4.601562 -3.742188 5.101562 -2.8125 5.101562 -1.929688 C 5.101562 -0.707031 4.242188 0.0429688 2.871094 0.0429688 C 2.328125 0.0429688 1.972656 -0.03125 1.523438 -0.191406 Z M 1.523438 -7.203125 "/></g></g></g><g fill="#bf1f1f" fill-opacity="1"><g transform="translate(46.48756, 18.781242)"><g><path d="M 0.441406 -1.488281 C 0.441406 -0.539062 1.132812 0.148438 2.082031 0.148438 C 3.371094 0.148438 3.859375 -0.90625 4.125 -2.171875 L 4.125 -0.914062 C 4.125 -0.359375 4.433594 0 4.824219 0 L 5.347656 0 L 5.347656 -0.0742188 C 5.148438 -0.0742188 4.785156 -0.207031 4.785156 -0.824219 C 4.785156 -1.605469 4.777344 -1.714844 4.777344 -2.371094 C 4.777344 -2.960938 4.710938 -3.519531 4.175781 -3.519531 C 4.058594 -3.519531 3.976562 -3.460938 3.976562 -3.417969 C 4.085938 -3.386719 4.101562 -3.21875 4.101562 -3.054688 C 4.101562 -0.914062 3.09375 -0.0976562 2.296875 -0.0976562 C 1.574219 -0.0976562 1.089844 -0.675781 1.089844 -1.441406 C 1.089844 -4.324219 4.792969 -3.246094 4.792969 -4.433594 C 4.792969 -5.015625 3.710938 -5.359375 2.878906 -5.359375 C 1.722656 -5.359375 0.855469 -4.984375 0.855469 -4.257812 C 0.855469 -3.9375 1.066406 -3.667969 1.382812 -3.667969 C 1.628906 -3.667969 1.871094 -3.875 1.796875 -4.09375 C 1.730469 -4.027344 1.503906 -4.152344 1.503906 -4.433594 C 1.503906 -5.042969 2.179688 -5.285156 2.878906 -5.285156 C 3.476562 -5.285156 4.167969 -5.042969 4.167969 -4.449219 C 4.167969 -3.234375 0.441406 -4.078125 0.441406 -1.488281 Z M 0.441406 -1.488281 "/></g></g></g><g fill="#bf1f1f" fill-opacity="1"><g transform="translate(51.980597, 18.781242)"><g><path d="M 2.210938 0 L 2.210938 -0.0742188 C 1.574219 -0.0742188 1.53125 -0.597656 1.53125 -2.046875 L 1.53125 -5.042969 C 1.953125 -5.175781 2.945312 -5.257812 3.402344 -5.257812 C 3.933594 -5.257812 4.191406 -4.976562 4.191406 -4.640625 C 4.191406 -4.335938 4 -4.09375 3.792969 -4.085938 C 3.792969 -3.878906 3.992188 -3.746094 4.195312 -3.746094 C 4.617188 -3.746094 4.832031 -4.070312 4.832031 -4.460938 C 4.832031 -5.027344 4.34375 -5.359375 3.6875 -5.359375 C 2.871094 -5.359375 1.921875 -5.214844 1.074219 -5.214844 L 0.222656 -5.214844 L 0.222656 -5.140625 C 0.855469 -5.140625 0.898438 -4.617188 0.898438 -3.167969 L 0.898438 -2.046875 C 0.898438 -0.597656 0.855469 -0.0742188 0.222656 -0.0742188 L 0.222656 0 Z M 2.210938 0 "/></g></g></g><g fill="#bf1f1f" fill-opacity="1"><g transform="translate(56.958204, 18.781242)"><g><path d="M 2.96875 0.148438 C 4.550781 0.148438 5.507812 -1.089844 5.507812 -2.605469 C 5.507812 -4.125 4.550781 -5.359375 2.96875 -5.359375 C 1.382812 -5.359375 0.441406 -4.125 0.441406 -2.605469 C 0.441406 -1.089844 1.382812 0.148438 2.96875 0.148438 Z M 1.066406 -2.605469 C 1.066406 -4.226562 1.824219 -5.273438 2.96875 -5.273438 C 4.109375 -5.273438 4.882812 -4.226562 4.882812 -2.605469 C 4.882812 -0.988281 4.109375 0.0585938 2.96875 0.0585938 C 1.824219 0.0585938 1.066406 -0.988281 1.066406 -2.605469 Z M 1.066406 -2.605469 "/></g></g></g><g fill="#bf1f1f" fill-opacity="1"><g transform="translate(62.907768, 18.781242)"><g><path d="M 0.222656 -0.0742188 L 0.222656 0 L 2.210938 0 L 2.210938 -0.0742188 C 1.574219 -0.0742188 1.53125 -0.597656 1.53125 -2.046875 L 1.53125 -5.042969 C 1.886719 -5.167969 2.296875 -5.257812 2.671875 -5.257812 C 3.171875 -5.257812 4.328125 -5.214844 4.328125 -3.5625 C 4.328125 -3.5625 4.335938 -2.269531 4.335938 -2.046875 C 4.335938 -0.597656 4.292969 -0.0742188 3.660156 -0.0742188 L 3.660156 0 L 5.648438 0 L 5.648438 -0.0742188 C 5.015625 -0.0742188 4.96875 -0.597656 4.96875 -2.046875 L 4.96875 -3.71875 C 4.96875 -5.265625 3.660156 -5.359375 3.003906 -5.359375 C 2.585938 -5.359375 1.664062 -5.214844 1.058594 -5.214844 L 0.222656 -5.214844 L 0.222656 -5.140625 C 0.855469 -5.140625 0.898438 -4.617188 0.898438 -3.167969 L 0.898438 -2.046875 C 0.898438 -0.597656 0.855469 -0.0742188 0.222656 -0.0742188 Z M 0.222656 -0.0742188 "/></g></g></g><g fill="#bf1f1f" fill-opacity="1"><g transform="translate(68.702704, 18.781242)"><g><path d="M 2.96875 0.148438 C 4.066406 0.148438 4.867188 -0.449219 5.25 -1.324219 L 5.148438 -1.371094 C 4.785156 -0.417969 3.8125 -0.101562 3.234375 -0.101562 C 1.878906 -0.101562 1.089844 -1.257812 1.074219 -2.628906 C 1.058594 -3.667969 1.457031 -5.273438 2.953125 -5.273438 C 5.058594 -5.273438 5.027344 -2.4375 3.9375 -2.4375 C 3.351562 -2.4375 2.777344 -3.417969 2.003906 -3.417969 C 1.496094 -3.417969 1.230469 -3.128906 1.230469 -2.828125 L 1.257812 -2.820312 C 1.28125 -2.878906 1.441406 -3.003906 1.621094 -3.003906 C 2.339844 -3.003906 2.703125 -2.347656 3.886719 -2.347656 C 4.734375 -2.347656 5.214844 -2.847656 5.21875 -3.683594 C 5.226562 -4.425781 4.550781 -5.359375 2.96875 -5.359375 C 1.382812 -5.359375 0.441406 -4.125 0.441406 -2.605469 C 0.441406 -1.089844 1.382812 0.148438 2.96875 0.148438 Z M 2.96875 0.148438 "/></g></g></g><g fill="#bf1f1f" fill-opacity="1"><g transform="translate(74.39455, 18.781242)"><g><path d="M 0.441406 -0.300781 C 0.914062 0 1.515625 0.148438 2.296875 0.148438 C 3.4375 0.148438 4.492188 -0.273438 4.492188 -1.355469 C 4.492188 -3.394531 0.972656 -2.695312 0.972656 -4.21875 C 0.972656 -4.769531 1.503906 -5.285156 2.429688 -5.285156 C 3.21875 -5.285156 3.867188 -4.824219 4.152344 -3.976562 L 4.183594 -3.976562 L 4.183594 -4.84375 C 4.183594 -4.84375 3.601562 -5.359375 2.355469 -5.359375 C 1.15625 -5.359375 0.542969 -4.769531 0.542969 -4.078125 C 0.542969 -2.011719 3.894531 -2.8125 3.894531 -1.257812 C 3.894531 -0.414062 3.101562 0.0585938 2.296875 0.0742188 C 1.140625 0.0976562 0.515625 -0.855469 0.515625 -1.199219 L 0.441406 -1.199219 Z M 0.441406 -0.300781 "/></g></g></g><g fill="#bf1f1f" fill-opacity="1"><g transform="translate(79.327976, 18.781242)"><g><path d="M 0.441406 -1.488281 C 0.441406 -0.539062 1.132812 0.148438 2.082031 0.148438 C 3.371094 0.148438 3.859375 -0.90625 4.125 -2.171875 L 4.125 -0.914062 C 4.125 -0.359375 4.433594 0 4.824219 0 L 5.347656 0 L 5.347656 -0.0742188 C 5.148438 -0.0742188 4.785156 -0.207031 4.785156 -0.824219 C 4.785156 -1.605469 4.777344 -1.714844 4.777344 -2.371094 C 4.777344 -2.960938 4.710938 -3.519531 4.175781 -3.519531 C 4.058594 -3.519531 3.976562 -3.460938 3.976562 -3.417969 C 4.085938 -3.386719 4.101562 -3.21875 4.101562 -3.054688 C 4.101562 -0.914062 3.09375 -0.0976562 2.296875 -0.0976562 C 1.574219 -0.0976562 1.089844 -0.675781 1.089844 -1.441406 C 1.089844 -4.324219 4.792969 -3.246094 4.792969 -4.433594 C 4.792969 -5.015625 3.710938 -5.359375 2.878906 -5.359375 C 1.722656 -5.359375 0.855469 -4.984375 0.855469 -4.257812 C 0.855469 -3.9375 1.066406 -3.667969 1.382812 -3.667969 C 1.628906 -3.667969 1.871094 -3.875 1.796875 -4.09375 C 1.730469 -4.027344 1.503906 -4.152344 1.503906 -4.433594 C 1.503906 -5.042969 2.179688 -5.285156 2.878906 -5.285156 C 3.476562 -5.285156 4.167969 -5.042969 4.167969 -4.449219 C 4.167969 -3.234375 0.441406 -4.078125 0.441406 -1.488281 Z M 0.441406 -1.488281 "/></g></g></g><path fill="#bf1f1f" d="M 2.699219 9.699219 C 5.046875 10.339844 6.117188 11.835938 5.902344 13.757812 C 5.6875 13.757812 5.261719 13.542969 4.835938 13.332031 C 5.046875 13.757812 5.476562 13.972656 6.117188 13.972656 C 6.328125 13.757812 6.328125 13.117188 6.328125 12.476562 C 7.183594 13.542969 8.039062 13.757812 9.320312 12.476562 C 8.039062 13.117188 6.972656 12.902344 6.328125 11.835938 C 6.542969 11.40625 6.972656 10.980469 7.824219 10.980469 C 7.613281 10.554688 7.613281 9.914062 7.613281 9.484375 C 8.039062 9.058594 8.679688 9.058594 9.109375 9.269531 C 9.75 9.484375 9.75 11.621094 10.816406 11.835938 C 9.960938 11.40625 9.960938 9.269531 9.109375 8.84375 C 8.679688 8.628906 8.039062 8.84375 7.613281 9.058594 L 7.613281 10.554688 C 6.972656 10.554688 6.542969 10.980469 6.328125 11.621094 C 5.902344 10.554688 4.835938 9.914062 3.125 9.269531 C 3.125 9.269531 2.910156 9.269531 2.910156 9.269531 C 2.699219 9.269531 2.699219 9.269531 2.484375 9.058594 C 2.269531 9.484375 2.269531 9.914062 2.269531 10.339844 C 2.269531 10.554688 2.269531 10.765625 2.269531 10.980469 C 2.269531 13.117188 3.980469 14.183594 7.183594 14.183594 C 5.046875 13.332031 3.765625 12.261719 3.125 10.765625 C 3.125 11.40625 3.765625 12.476562 5.261719 13.542969 C 3.550781 12.902344 2.484375 11.835938 2.699219 10.125 C 2.699219 9.914062 2.699219 9.699219 2.699219 9.484375 C 2.699219 9.269531 2.699219 9.269531 2.699219 9.058594 C 2.699219 9.058594 2.699219 9.058594 2.910156 9.058594 C 2.910156 9.058594 3.125 9.058594 3.125 9.058594 Z M 2.910156 9.484375 L 2.699219 9.699219 C 2.699219 9.699219 2.699219 9.484375 2.910156 9.484375 Z M 2.910156 9.484375 " fill-opacity="1" fill-rule="evenodd"/><path fill="#bf1f1f" d="M 10.816406 12.261719 C 8.464844 13.117188 7.398438 14.183594 7.824219 15.039062 C 5.261719 15.46875 3.125 15.039062 1.84375 13.542969 C 2.910156 15.253906 5.046875 15.679688 8.039062 15.253906 C 8.464844 15.679688 9.109375 15.679688 9.75 15.46875 C 10.390625 16.320312 10.816406 16.535156 11.03125 16.320312 C 12.3125 15.253906 12.3125 14.183594 10.816406 12.691406 C 11.886719 14.183594 11.886719 15.253906 10.816406 16.109375 C 10.601562 15.894531 10.175781 15.46875 9.75 15.039062 C 9.109375 15.253906 8.039062 15.679688 8.039062 14.613281 C 8.039062 13.332031 8.894531 13.332031 10.816406 12.050781 Z M 10.816406 12.261719 " fill-opacity="1" fill-rule="evenodd"/><path fill="#bf1f1f" d="M 9.75 9.914062 C 9.75 10.554688 10.601562 11.195312 10.816406 12.050781 C 11.242188 11.40625 13.59375 11.195312 13.808594 10.125 C 13.808594 9.699219 13.808594 9.484375 13.59375 9.058594 L 12.3125 9.058594 C 12.097656 8.84375 11.886719 8.417969 11.242188 8.203125 C 10.175781 8.628906 9.535156 9.269531 9.75 10.125 Z M 13.167969 10.339844 C 12.738281 10.765625 11.671875 10.765625 10.816406 11.621094 C 9.535156 10.125 9.75 9.058594 11.242188 8.417969 C 11.671875 8.628906 12.097656 8.84375 12.097656 9.269531 L 13.378906 9.269531 C 13.59375 9.699219 13.59375 10.125 13.378906 10.554688 Z M 13.167969 10.339844 " fill-opacity="1" fill-rule="evenodd"/><path fill="#bf1f1f" d="M 15.304688 12.050781 C 14.234375 10.554688 12.953125 10.554688 11.03125 12.261719 C 11.886719 13.972656 12.3125 14.828125 13.378906 15.039062 C 13.808594 15.039062 15.304688 14.828125 14.449219 13.332031 C 16.585938 12.261719 18.507812 10.339844 20.003906 7.988281 C 18.9375 9.484375 17.441406 10.980469 15.515625 12.261719 Z M 14.023438 14.398438 C 12.953125 15.039062 12.097656 14.183594 11.242188 12.261719 C 12.953125 10.765625 14.023438 10.765625 14.875 12.261719 C 14.664062 12.691406 14.449219 12.902344 13.808594 13.117188 C 14.234375 13.757812 14.234375 14.398438 13.808594 14.613281 Z M 14.023438 14.398438 " fill-opacity="1" fill-rule="evenodd"/><g clip-path="url(#0df9e8cfd5)"><path fill="#291b25" d="M 9.535156 7.988281 C 12.527344 3.714844 18.292969 2.863281 22.78125 5.640625 C 20.859375 3.929688 18.082031 3.289062 15.515625 3.714844 C 12.953125 4.144531 10.816406 5.851562 9.535156 7.988281 Z M 9.535156 7.988281 " fill-opacity="1" fill-rule="evenodd"/></g><path fill="#bf1f1f" d="M 6.117188 20.382812 C 9.109375 19.742188 10.175781 18.457031 9.320312 16.535156 C 8.894531 16.535156 8.464844 16.75 8.253906 17.175781 C 8.464844 16.964844 8.894531 16.964844 9.109375 16.964844 C 9.109375 18.671875 8.253906 19.527344 6.328125 19.953125 C 6.117188 19.3125 6.117188 18.457031 6.542969 17.816406 C 6.972656 17.175781 7.613281 16.75 8.253906 16.535156 C 7.398438 16.964844 6.757812 17.816406 6.542969 18.671875 C 6.972656 17.605469 8.039062 16.75 9.75 16.109375 C 8.679688 15.894531 7.398438 16.109375 6.542969 17.175781 C 5.6875 18.03125 5.6875 19.3125 6.117188 20.59375 Z M 6.117188 20.382812 " fill-opacity="1" fill-rule="evenodd"/><g clip-path="url(#a4fbc5819b)"><path fill="#291b25" d="M 11.886719 17.175781 C 10.175781 18.457031 8.679688 20.167969 8.464844 22.519531 C 8.253906 24.65625 9.109375 27.003906 10.816406 28.285156 L 10.601562 31.0625 C 10.816406 29.996094 10.816406 29.140625 11.03125 28.5 C 12.3125 29.78125 14.234375 30.851562 16.585938 31.0625 C 21.714844 31.492188 22.996094 29.355469 22.996094 28.074219 C 22.996094 27.433594 22.566406 26.578125 21.5 26.363281 C 22.355469 27.21875 22.355469 28.074219 22.140625 28.714844 C 21.925781 29.996094 19.578125 31.0625 16.800781 30.851562 C 18.292969 25.507812 20.429688 22.945312 23.421875 23.160156 C 26.414062 23.160156 27.480469 22.089844 26.414062 20.167969 C 27.054688 19.527344 27.269531 19.101562 26.839844 18.886719 C 27.480469 18.671875 27.480469 18.03125 26.839844 17.390625 C 26.839844 17.390625 26.839844 17.175781 27.269531 16.964844 C 28.121094 16.320312 28.121094 15.894531 27.269531 15.253906 C 25.773438 14.183594 25.132812 13.117188 25.132812 12.050781 C 25.34375 10.339844 24.703125 8.628906 23.421875 6.921875 C 24.277344 8.203125 24.703125 9.699219 24.703125 11.40625 C 24.703125 13.117188 25.558594 14.398438 27.054688 15.46875 C 27.269531 15.679688 27.480469 15.679688 27.480469 15.894531 C 27.480469 16.109375 26.628906 16.535156 26.628906 17.175781 C 27.269531 18.03125 27.054688 18.457031 25.558594 18.886719 C 27.054688 18.671875 27.269531 19.101562 26.199219 19.953125 C 27.054688 21.878906 26.414062 22.730469 23.851562 22.519531 C 20.644531 22.304688 18.292969 25.082031 16.585938 30.851562 C 14.449219 30.636719 12.738281 29.78125 11.457031 28.5 C 12.527344 24.226562 13.59375 23.585938 16.371094 19.953125 C 18.082031 17.816406 20.644531 15.253906 22.140625 12.261719 C 24.0625 12.261719 24.703125 12.050781 24.277344 11.621094 L 22.355469 11.835938 C 23.207031 10.339844 23.421875 8.417969 23.421875 6.707031 C 23.207031 9.269531 22.566406 11.621094 21.074219 13.542969 C 16.585938 18.886719 12.738281 23.371094 11.242188 28.285156 C 8.039062 24.441406 8.253906 20.59375 12.738281 17.390625 C 18.722656 13.332031 21.925781 10.339844 21.925781 7.136719 C 21.5 10.980469 17.652344 13.542969 12.097656 17.390625 Z M 11.886719 17.175781 " fill-opacity="1" fill-rule="evenodd"/></g><path fill="#291b25" d="M 22.566406 14.183594 C 22.996094 14.398438 23.636719 14.613281 24.277344 14.828125 L 24.0625 14.398438 C 24.703125 14.398438 25.132812 14.183594 25.132812 13.757812 C 24.703125 13.757812 24.277344 13.542969 24.0625 13.117188 C 24.277344 13.757812 23.851562 14.183594 22.566406 14.183594 Z M 22.566406 14.183594 " fill-opacity="1" fill-rule="evenodd"/></svg>